<?xml version="1.0" encoding="utf-8"?>
<!-- Generator: Adobe Illustrator 24.0.1, SVG Export Plug-In . SVG Version: 6.00 Build 0)  -->
<svg version="1.1" id="圖層_1" xmlns="http://www.w3.org/2000/svg" xmlns:xlink="http://www.w3.org/1999/xlink" x="0px" y="0px"
	 viewBox="0 0 592 77" style="enable-background:new 0 0 592 77;" xml:space="preserve">
<style type="text/css">
	.st0{display:none;fill:#FFFFFF;}
	.st1{fill:none;stroke:#000000;stroke-width:0;stroke-linecap:round;stroke-linejoin:round;}
</style>
<g>
	<path class="st0" d="M591.7,77c-197.3,0-394.7,0-592,0c0-25.7,0-51.3,0-77c197.3,0,394.7,0,592,0C591.7,25.7,591.7,51.3,591.7,77z
		 M584.9,0.7c-0.8,0-1.2,0-1.7,0C395,0.7,206.8,0.8,18.5,0.8c-4.6,0-8.8,1.1-12.6,4.3c-3.8,3.2-5.7,7-5.7,11.8c0,19.1,0,38.1,0,57.2
		c0,0.4-0.1,0.9,0,1.3c0.2,0.5,0.7,0.9,1.2,1.1c0.4,0.2,1,0,1.4,0c152,0,304,0.1,456,0.1c5.6,0,11.2-0.2,16.5-2
		c3.5-1.2,7-2.5,10.2-4.3c2.9-1.7,5.4-4,8-6.2c4.4-3.7,8.7-7.4,13.1-11.1c3.5-3,6.9-6,10.4-9c4.3-3.7,8.7-7.4,13.1-11.1
		c3.4-2.9,6.8-5.9,10.2-8.8c3.5-3,7-6.1,10.6-9c2.7-2.2,5.5-4.2,8.5-6.1c2.3-1.4,4.8-2.4,7.2-3.6C572.2,2.6,578.2,1.3,584.9,0.7z"/>
	<path class="st1" d="M0.2,75.4c0.2,0.5,0.7,0.9,1.2,1.1c0.4,0.2,1,0,1.4,0c152,0,304,0.1,456,0.1c5.6,0,11.2-0.2,16.5-2
		c3.5-1.2,7-2.5,10.2-4.3c2.9-1.7,5.4-4,8-6.2c4.4-3.7,8.7-7.4,13.1-11.1l10.4-9c4.3-3.7,8.7-7.4,13.1-11.1
		c3.4-2.9,6.8-5.9,10.2-8.8c3.5-3,7-6.1,10.6-9c2.7-2.2,5.5-4.2,8.5-6.1c2.3-1.4,4.8-2.4,7.2-3.6c5.6-2.9,11.7-4.1,18.3-4.8
		c-0.8,0-1.2,0-1.7,0C395,0.7,206.8,0.8,18.5,0.8c-4.6,0-8.8,1.1-12.6,4.3c-3.8,3.2-5.7,7-5.7,11.8c0,19.1,0,38.1,0,57.2
		C0.2,74.5,0,75,0.2,75.4z"/>
</g>
</svg>