<svg width="400" height="500" xmlns="http://www.w3.org/2000/svg">
  <rect x="0" y="0" width="400" height="500" fill="white" stroke="green" stroke-dasharray="5,5" />
  <g font-family="Arial" font-size="14">
    <polygon points="50,50 150,50 130,70 50,70" fill="#FFD700" />
    <text x="55" y="65" fill="black">太陽能案場</text>
    
    <polygon points="50,100 150,100 130,120 50,120" fill="#87CEEB" />
    <text x="55" y="115" fill="black">風能案場</text>
    
    <polygon points="50,150 150,150 130,170 50,170" fill="#98FB98" />
    <text x="55" y="165" fill="black">生質能案場</text>
    
    <polygon points="50,200 150,200 130,220 50,220" fill="#DDA0DD" />
    <text x="55" y="215" fill="black">地熱案場</text>
    
    <polygon points="50,250 150,250 130,270 50,270" fill="#ADD8E6" />
    <text x="55" y="265" fill="black">儲電案場</text>
    
    <rect x="200" y="50" width="150" height="300" fill="none" stroke="black" stroke-dasharray="5,5" />
    
    <rect x="225" y="75" width="100" height="50" fill="#AFEEEE" />
    <text x="245" y="105" fill="black">自建自營</text>
    
    <rect x="225" y="150" width="100" height="50" fill="#D2B48C" />
    <text x="245" y="180" fill="black">案場代管</text>
    
    <rect x="225" y="225" width="100" height="50" fill="#98FB98" />
    <text x="245" y="255" fill="black">能源提供商</text>
    
    <line x1="150" y1="60" x2="200" y2="100" stroke="black" />
    <line x1="150" y1="110" x2="200" y2="175" stroke="black" />
    <line x1="150" y1="160" x2="200" y2="250" stroke="black" />
    <line x1="150" y1="210" x2="200" y2="250" stroke="black" />
    <line x1="150" y1="260" x2="200" y2="250" stroke="black" />
    
    <text x="150" y="350" fill="black">第一產業</text>
    <text x="150" y="370" fill="black">能源提供商/代管商</text>
  </g>
</svg>
